<svg xmlns="http://www.w3.org/2000/svg" xmlns:xlink="http://www.w3.org/1999/xlink" width="150" zoomAndPan="magnify" viewBox="0 0 112.5 119.249998" height="159" preserveAspectRatio="xMidYMid meet" version="1.0"><defs><filter x="0%" y="0%" width="100%" height="100%" id="1636613465"><feColorMatrix values="0 0 0 0 1 0 0 0 0 1 0 0 0 0 1 0 0 0 1 0" color-interpolation-filters="sRGB"/></filter><mask id="f648eb209b"><g filter="url(#1636613465)"><rect x="-11.25" width="135" fill="#000000" y="-11.925" height="143.099997" fill-opacity="0.5"/></g></mask><clipPath id="45455c1530"><path d="M 0.59375 0.84375 L 104.9375 0.84375 L 104.9375 63.449219 L 0.59375 63.449219 Z M 0.59375 0.84375 " clip-rule="nonzero"/></clipPath><clipPath id="1a78bf2ecf"><rect x="0" width="106" y="0" height="65"/></clipPath></defs><g mask="url(#f648eb209b)"><g transform="matrix(1, 0, 0, 1, 5, 27)"><g clip-path="url(#1a78bf2ecf)"><g clip-path="url(#45455c1530)"><path fill="#000000" d="M 25.226562 17.167969 L 44.898438 17.167969 L 44.898438 18.726562 L 27.03125 18.726562 L 27.03125 30.433594 L 43.835938 30.433594 L 43.835938 31.988281 L 27.03125 31.988281 L 27.03125 44.84375 L 45.101562 44.84375 L 45.101562 46.398438 L 25.226562 46.398438 Z M 46.660156 17.167969 L 48.75 17.167969 L 58.015625 30.023438 L 67.480469 17.167969 L 80.359375 0.84375 L 59.203125 31.375 L 70.105469 46.398438 L 67.933594 46.398438 L 58.015625 32.726562 L 48.054688 46.398438 L 45.925781 46.398438 L 56.90625 31.375 Z M 70.882812 18.726562 L 70.882812 17.167969 L 93.304688 17.167969 L 93.304688 18.726562 L 82.972656 18.726562 L 82.972656 46.398438 L 81.171875 46.398438 L 81.171875 18.726562 Z M 0.617188 17.167969 L 2.871094 17.167969 L 33.953125 63.445312 L 21.109375 46.398438 L 2.5 19.378906 L 2.417969 46.398438 L 0.617188 46.398438 Z M 93.121094 44.375 C 92.753906 44.375 92.476562 44.089844 92.476562 43.722656 C 92.476562 43.355469 92.753906 43.070312 93.121094 43.070312 C 93.492188 43.070312 93.765625 43.355469 93.765625 43.722656 C 93.765625 44.089844 93.492188 44.375 93.121094 44.375 Z M 94.890625 42.660156 L 95.855469 42.660156 C 95.871094 43.179688 96.253906 43.53125 96.8125 43.53125 C 97.441406 43.53125 97.792969 43.15625 97.792969 42.453125 L 97.792969 37.996094 L 98.777344 37.996094 L 98.777344 42.457031 C 98.777344 43.722656 98.042969 44.453125 96.824219 44.453125 C 95.679688 44.453125 94.890625 43.746094 94.890625 42.660156 Z M 100.0625 42.601562 L 101.039062 42.601562 C 101.121094 43.203125 101.707031 43.582031 102.554688 43.582031 C 103.34375 43.582031 103.921875 43.175781 103.921875 42.617188 C 103.921875 42.136719 103.554688 41.847656 102.714844 41.652344 L 101.902344 41.453125 C 100.757812 41.1875 100.234375 40.636719 100.234375 39.710938 C 100.234375 38.589844 101.15625 37.84375 102.539062 37.84375 C 103.824219 37.84375 104.761719 38.589844 104.816406 39.648438 L 103.863281 39.648438 C 103.769531 39.070312 103.261719 38.707031 102.523438 38.707031 C 101.746094 38.707031 101.230469 39.078125 101.230469 39.644531 C 101.230469 40.097656 101.5625 40.355469 102.386719 40.546875 L 103.085938 40.714844 C 104.382812 41.019531 104.917969 41.542969 104.917969 42.488281 C 104.917969 43.695312 103.980469 44.453125 102.480469 44.453125 C 101.078125 44.453125 100.132812 43.730469 100.0625 42.601562 Z M 100.0625 42.601562 " fill-opacity="1" fill-rule="nonzero"/></g></g></g></g></svg>