<svg xmlns="http://www.w3.org/2000/svg" xmlns:xlink="http://www.w3.org/1999/xlink" width="150" zoomAndPan="magnify" viewBox="0 0 112.5 119.249998" height="159" preserveAspectRatio="xMidYMid meet" version="1.0"><defs><filter x="0%" y="0%" width="100%" height="100%" id="5c851f8d6d"><feColorMatrix values="0 0 0 0 1 0 0 0 0 1 0 0 0 0 1 0 0 0 1 0" color-interpolation-filters="sRGB"/></filter><clipPath id="2650d38303"><path d="M 0.101562 14 L 111.898438 14 L 111.898438 105 L 0.101562 105 Z M 0.101562 14 " clip-rule="nonzero"/></clipPath><mask id="a5070dc392"><g filter="url(#5c851f8d6d)"><rect x="-11.25" width="135" fill="#000000" y="-11.925" height="143.099997" fill-opacity="0.2"/></g></mask><clipPath id="e1eb85280c"><path d="M 98 67 L 111.898438 67 L 111.898438 90 L 98 90 Z M 98 67 " clip-rule="nonzero"/></clipPath><clipPath id="3da28ee065"><path d="M 0.101562 89 L 111.898438 89 L 111.898438 90 L 0.101562 90 Z M 0.101562 89 " clip-rule="nonzero"/></clipPath><clipPath id="98d47c373a"><rect x="0" width="112" y="0" height="91"/></clipPath></defs><g clip-path="url(#2650d38303)"><g mask="url(#a5070dc392)"><g transform="matrix(1, 0, 0, 1, 0.000000000000000014, 14)"><g clip-path="url(#98d47c373a)"><path fill="#61dafb" d="M 56.019531 64.886719 C 42.839844 64.886719 30.445312 62.925781 21.113281 59.363281 C 11.660156 55.753906 6.453125 50.90625 6.453125 45.710938 C 6.453125 40.515625 11.660156 35.664062 21.113281 32.054688 C 30.445312 28.492188 42.839844 26.53125 56.019531 26.53125 C 69.199219 26.53125 81.59375 28.492188 90.925781 32.054688 C 100.378906 35.664062 105.585938 40.515625 105.585938 45.710938 C 105.585938 50.90625 100.378906 55.753906 90.925781 59.363281 C 81.59375 62.925781 69.199219 64.886719 56.019531 64.886719 Z M 56.019531 27.351562 C 42.9375 27.351562 30.644531 29.292969 21.40625 32.820312 C 12.289062 36.300781 7.269531 40.878906 7.269531 45.710938 C 7.269531 50.542969 12.289062 55.117188 21.40625 58.597656 C 30.644531 62.125 42.9375 64.070312 56.019531 64.070312 C 69.101562 64.070312 81.394531 62.125 90.632812 58.597656 C 99.75 55.117188 104.769531 50.542969 104.769531 45.710938 C 104.769531 40.878906 99.75 36.300781 90.632812 32.820312 C 81.394531 29.292969 69.101562 27.351562 56.019531 27.351562 Z M 56.019531 27.351562 " fill-opacity="1" fill-rule="nonzero"/><path fill="#61dafb" d="M 76.5 89.722656 C 72.402344 89.722656 67.296875 87.355469 61.648438 82.765625 C 53.898438 76.464844 46 66.710938 39.410156 55.296875 C 32.820312 43.886719 28.320312 32.167969 26.742188 22.308594 C 25.140625 12.316406 26.738281 5.382812 31.234375 2.785156 C 35.734375 0.1875 42.539062 2.273438 50.390625 8.652344 C 58.140625 14.953125 66.039062 24.707031 72.628906 36.121094 C 79.21875 47.535156 83.71875 59.25 85.296875 69.113281 C 86.898438 79.105469 85.300781 86.039062 80.804688 88.636719 C 79.539062 89.363281 78.097656 89.722656 76.5 89.722656 Z M 35.5625 2.507812 C 34.101562 2.507812 32.789062 2.832031 31.644531 3.492188 C 27.460938 5.910156 26.003906 12.542969 27.550781 22.179688 C 29.113281 31.945312 33.578125 43.5625 40.117188 54.890625 C 46.660156 66.21875 54.488281 75.894531 62.164062 82.128906 C 69.734375 88.285156 76.210938 90.34375 80.394531 87.925781 C 84.578125 85.511719 86.03125 78.875 84.488281 69.242188 C 82.925781 59.476562 78.460938 47.859375 71.921875 36.53125 C 65.378906 25.199219 57.550781 15.527344 49.875 9.289062 C 44.371094 4.816406 39.449219 2.507812 35.5625 2.507812 Z M 35.5625 2.507812 " fill-opacity="1" fill-rule="nonzero"/><path fill="#61dafb" d="M 35.539062 89.722656 C 33.941406 89.722656 32.5 89.363281 31.234375 88.636719 C 26.738281 86.039062 25.140625 79.105469 26.742188 69.113281 C 28.320312 59.25 32.820312 47.535156 39.410156 36.121094 C 46 24.707031 53.898438 14.953125 61.648438 8.652344 C 69.5 2.273438 76.304688 0.1875 80.804688 2.785156 C 85.300781 5.382812 86.898438 12.316406 85.296875 22.308594 C 83.71875 32.167969 79.21875 43.886719 72.628906 55.296875 C 66.039062 66.710938 58.140625 76.464844 50.390625 82.765625 C 44.742188 87.355469 39.636719 89.722656 35.539062 89.722656 Z M 76.476562 2.507812 C 72.589844 2.507812 67.667969 4.816406 62.164062 9.289062 C 54.488281 15.527344 46.660156 25.199219 40.117188 36.53125 C 33.578125 47.859375 29.113281 59.476562 27.550781 69.242188 C 26.003906 78.875 27.460938 85.511719 31.644531 87.925781 C 32.789062 88.585938 34.101562 88.914062 35.5625 88.914062 C 39.449219 88.914062 44.371094 86.601562 49.875 82.128906 C 57.550781 75.894531 65.378906 66.21875 71.921875 54.890625 C 78.460938 43.5625 82.925781 31.945312 84.488281 22.179688 C 86.03125 12.542969 84.578125 5.910156 80.394531 3.492188 C 79.25 2.832031 77.9375 2.507812 76.476562 2.507812 Z M 76.476562 2.507812 " fill-opacity="1" fill-rule="nonzero"/><path fill="#61dafb" d="M 65.179688 45.710938 C 65.179688 46.3125 65.121094 46.90625 65.003906 47.496094 C 64.886719 48.085938 64.714844 48.660156 64.484375 49.214844 C 64.253906 49.769531 63.972656 50.300781 63.636719 50.800781 C 63.300781 51.300781 62.921875 51.761719 62.496094 52.1875 C 62.070312 52.613281 61.609375 52.992188 61.109375 53.328125 C 60.609375 53.660156 60.082031 53.941406 59.523438 54.171875 C 58.96875 54.402344 58.398438 54.578125 57.804688 54.695312 C 57.214844 54.8125 56.621094 54.871094 56.019531 54.871094 C 55.417969 54.871094 54.820312 54.8125 54.230469 54.695312 C 53.640625 54.578125 53.070312 54.402344 52.511719 54.171875 C 51.957031 53.941406 51.429688 53.660156 50.929688 53.328125 C 50.429688 52.992188 49.964844 52.613281 49.542969 52.1875 C 49.117188 51.761719 48.734375 51.300781 48.402344 50.800781 C 48.066406 50.300781 47.785156 49.769531 47.554688 49.214844 C 47.324219 48.660156 47.152344 48.085938 47.035156 47.496094 C 46.917969 46.90625 46.859375 46.3125 46.859375 45.710938 C 46.859375 45.109375 46.917969 44.511719 47.035156 43.921875 C 47.152344 43.332031 47.324219 42.757812 47.554688 42.203125 C 47.785156 41.648438 48.066406 41.121094 48.402344 40.621094 C 48.734375 40.121094 49.117188 39.65625 49.542969 39.230469 C 49.964844 38.804688 50.429688 38.425781 50.929688 38.09375 C 51.429688 37.757812 51.957031 37.476562 52.511719 37.246094 C 53.070312 37.015625 53.640625 36.84375 54.230469 36.726562 C 54.820312 36.605469 55.417969 36.546875 56.019531 36.546875 C 56.621094 36.546875 57.214844 36.605469 57.804688 36.726562 C 58.398438 36.84375 58.96875 37.015625 59.523438 37.246094 C 60.082031 37.476562 60.609375 37.757812 61.109375 38.09375 C 61.609375 38.425781 62.070312 38.804688 62.496094 39.230469 C 62.921875 39.65625 63.300781 40.121094 63.636719 40.621094 C 63.972656 41.121094 64.253906 41.648438 64.484375 42.203125 C 64.714844 42.757812 64.886719 43.332031 65.003906 43.921875 C 65.121094 44.511719 65.179688 45.109375 65.179688 45.710938 Z M 65.179688 45.710938 " fill-opacity="1" fill-rule="nonzero"/><g clip-path="url(#e1eb85280c)"><path fill="#f2f2f2" d="M 111.914062 70.988281 C 111.742188 70.699219 110.996094 71.011719 110.855469 70.746094 C 110.71875 70.484375 111.414062 70.082031 111.8125 69.164062 C 111.882812 69 112.332031 67.957031 112 67.636719 C 111.367188 67.027344 108.472656 69.542969 107.460938 68.71875 C 107.238281 68.539062 107.082031 68.179688 106.410156 67.59375 C 106.144531 67.359375 105.980469 67.253906 105.824219 67.292969 C 105.601562 67.351562 105.585938 67.648438 105.347656 68.230469 C 104.988281 69.109375 104.777344 69.054688 104.570312 69.753906 C 104.414062 70.273438 104.449219 70.578125 104.269531 70.636719 C 104.011719 70.71875 103.773438 70.167969 103.449219 70.21875 C 103.113281 70.269531 102.914062 70.910156 102.851562 71.390625 C 102.730469 72.289062 103.0625 72.886719 103.246094 73.511719 C 103.445312 74.191406 103.5625 75.222656 103.101562 76.6875 L 98.546875 89.523438 C 99.550781 86.890625 102.464844 79.667969 103.6875 76.984375 C 104.042969 76.210938 104.433594 75.425781 105.234375 75.113281 C 106.003906 74.816406 107.0625 74.996094 108.414062 74.667969 C 108.570312 74.632812 109.007812 74.519531 109.0625 74.261719 C 109.109375 74.050781 108.851562 73.929688 108.890625 73.730469 C 108.945312 73.464844 109.449219 73.460938 110.074219 73.152344 C 110.511719 72.933594 110.785156 72.675781 111.019531 72.453125 C 111.089844 72.386719 112.144531 71.378906 111.914062 70.988281 Z M 111.914062 70.988281 " fill-opacity="1" fill-rule="nonzero"/></g><path fill="#f2f2f2" d="M 93.988281 77.75 C 93.792969 77.75 93.730469 78.207031 93.5625 78.195312 C 93.394531 78.1875 93.398438 77.730469 93.0625 77.273438 C 93 77.191406 92.621094 76.667969 92.367188 76.738281 C 91.882812 76.875 92.28125 79.019531 91.585938 79.277344 C 91.433594 79.335938 91.210938 79.308594 90.730469 79.46875 C 90.539062 79.535156 90.441406 79.582031 90.414062 79.671875 C 90.378906 79.796875 90.519531 79.890625 90.738281 80.175781 C 91.066406 80.605469 90.976562 80.691406 91.261719 80.996094 C 91.472656 81.222656 91.628906 81.292969 91.605469 81.398438 C 91.574219 81.550781 91.234375 81.507812 91.164062 81.679688 C 91.09375 81.859375 91.351562 82.140625 91.566406 82.3125 C 91.976562 82.632812 92.363281 82.640625 92.722656 82.730469 C 93.113281 82.828125 93.65625 83.070312 94.242188 83.71875 L 99.226562 89.65625 C 98.222656 88.402344 95.519531 84.890625 94.554688 83.515625 C 94.277344 83.117188 94.003906 82.699219 94.082031 82.21875 C 94.160156 81.753906 94.550781 81.285156 94.78125 80.527344 C 94.808594 80.441406 94.882812 80.191406 94.769531 80.089844 C 94.679688 80.007812 94.546875 80.101562 94.460938 80.023438 C 94.34375 79.917969 94.488281 79.671875 94.515625 79.277344 C 94.535156 78.996094 94.488281 78.789062 94.449219 78.609375 C 94.433594 78.554688 94.242188 77.746094 93.988281 77.75 Z M 93.988281 77.75 " fill-opacity="1" fill-rule="nonzero"/><path fill="#f2f2f2" d="M 97.832031 78.613281 L 97.714844 77.574219 L 97.769531 77.496094 C 98.015625 77.132812 98.140625 76.777344 98.140625 76.441406 C 98.140625 76.386719 98.140625 76.335938 98.136719 76.28125 C 98.125 76.0625 98.113281 75.792969 98.253906 75.480469 C 98.332031 75.304688 98.554688 74.902344 98.886719 74.953125 C 98.976562 74.964844 99.042969 75.003906 99.09375 75.054688 C 99.101562 75.042969 99.109375 75.03125 99.117188 75.015625 C 99.21875 74.859375 99.300781 74.792969 99.382812 74.726562 C 99.441406 74.675781 99.503906 74.625 99.601562 74.503906 C 99.644531 74.449219 99.679688 74.402344 99.707031 74.363281 C 99.792969 74.242188 99.90625 74.101562 100.101562 74.101562 C 100.3125 74.113281 100.425781 74.289062 100.5 74.402344 C 100.628906 74.609375 100.6875 74.757812 100.726562 74.855469 C 100.742188 74.894531 100.757812 74.933594 100.765625 74.945312 C 100.835938 75.046875 101.386719 74.953125 101.597656 74.917969 C 102.066406 74.839844 102.46875 74.773438 102.636719 75.066406 C 102.757812 75.277344 102.667969 75.558594 102.363281 75.921875 C 102.269531 76.03125 102.171875 76.117188 102.082031 76.1875 C 102.15625 76.230469 102.222656 76.296875 102.246094 76.402344 C 102.3125 76.65625 102.09375 76.90625 101.605469 77.152344 C 101.484375 77.214844 101.320312 77.296875 101.09375 77.335938 C 100.984375 77.355469 100.886719 77.359375 100.804688 77.363281 C 100.800781 77.410156 100.789062 77.460938 100.761719 77.515625 C 100.675781 77.671875 100.496094 77.746094 100.226562 77.730469 C 99.929688 77.714844 99.6875 77.65625 99.472656 77.609375 C 99.285156 77.566406 99.121094 77.527344 98.996094 77.535156 C 98.757812 77.554688 98.578125 77.746094 98.363281 77.988281 Z M 97.832031 78.613281 " fill-opacity="1" fill-rule="nonzero"/><path fill="#f2f2f2" d="M 98.371094 72.441406 L 97.398438 72.816406 L 97.308594 72.785156 C 96.894531 72.636719 96.519531 72.605469 96.191406 72.691406 C 96.140625 72.703125 96.089844 72.71875 96.039062 72.738281 C 95.832031 72.800781 95.574219 72.882812 95.234375 72.824219 C 95.046875 72.792969 94.597656 72.683594 94.5625 72.347656 C 94.554688 72.257812 94.574219 72.183594 94.609375 72.121094 C 94.597656 72.117188 94.582031 72.113281 94.566406 72.109375 C 94.390625 72.046875 94.300781 71.988281 94.21875 71.925781 C 94.15625 71.882812 94.089844 71.832031 93.945312 71.769531 C 93.882812 71.742188 93.832031 71.722656 93.785156 71.703125 C 93.648438 71.652344 93.480469 71.578125 93.433594 71.386719 C 93.390625 71.179688 93.53125 71.027344 93.625 70.929688 C 93.789062 70.75 93.917969 70.65625 94.003906 70.589844 C 94.035156 70.570312 94.070312 70.542969 94.082031 70.53125 C 94.160156 70.441406 93.929688 69.929688 93.84375 69.734375 C 93.648438 69.300781 93.480469 68.925781 93.722656 68.691406 C 93.898438 68.523438 94.191406 68.535156 94.617188 68.738281 C 94.75 68.800781 94.859375 68.875 94.945312 68.945312 C 94.96875 68.863281 95.019531 68.78125 95.113281 68.730469 C 95.339844 68.605469 95.640625 68.75 96.003906 69.160156 C 96.09375 69.261719 96.214844 69.398438 96.308594 69.609375 C 96.355469 69.710938 96.382812 69.800781 96.40625 69.882812 C 96.453125 69.871094 96.507812 69.871094 96.566406 69.882812 C 96.742188 69.925781 96.859375 70.082031 96.910156 70.347656 C 96.96875 70.636719 96.976562 70.886719 96.984375 71.109375 C 96.988281 71.300781 96.996094 71.464844 97.035156 71.585938 C 97.113281 71.808594 97.34375 71.9375 97.632812 72.082031 Z M 98.371094 72.441406 " fill-opacity="1" fill-rule="nonzero"/><path fill="#f2f2f2" d="M 97.832031 69.386719 L 97.714844 68.347656 L 97.769531 68.269531 C 98.015625 67.90625 98.140625 67.550781 98.140625 67.214844 C 98.140625 67.160156 98.140625 67.109375 98.136719 67.054688 C 98.125 66.835938 98.113281 66.570312 98.253906 66.253906 C 98.332031 66.082031 98.554688 65.675781 98.886719 65.726562 C 98.976562 65.738281 99.042969 65.78125 99.09375 65.828125 C 99.101562 65.816406 99.109375 65.804688 99.117188 65.789062 C 99.21875 65.632812 99.300781 65.566406 99.382812 65.5 C 99.441406 65.449219 99.503906 65.398438 99.601562 65.277344 C 99.644531 65.222656 99.679688 65.175781 99.707031 65.136719 C 99.792969 65.015625 99.90625 64.875 100.101562 64.875 C 100.3125 64.886719 100.425781 65.0625 100.5 65.175781 C 100.628906 65.382812 100.6875 65.53125 100.726562 65.628906 C 100.742188 65.667969 100.757812 65.707031 100.765625 65.71875 C 100.835938 65.820312 101.386719 65.726562 101.597656 65.691406 C 102.066406 65.613281 102.46875 65.546875 102.636719 65.839844 C 102.757812 66.054688 102.667969 66.332031 102.363281 66.695312 C 102.269531 66.808594 102.171875 66.890625 102.082031 66.960938 C 102.15625 67.003906 102.222656 67.070312 102.246094 67.175781 C 102.3125 67.429688 102.09375 67.679688 101.605469 67.925781 C 101.484375 67.988281 101.320312 68.070312 101.09375 68.109375 C 100.984375 68.128906 100.886719 68.132812 100.804688 68.136719 C 100.800781 68.183594 100.789062 68.234375 100.761719 68.289062 C 100.675781 68.445312 100.496094 68.523438 100.226562 68.503906 C 99.929688 68.488281 99.6875 68.429688 99.472656 68.382812 C 99.285156 68.339844 99.121094 68.300781 98.996094 68.3125 C 98.757812 68.328125 98.578125 68.519531 98.363281 68.761719 Z M 97.832031 69.386719 " fill-opacity="1" fill-rule="nonzero"/><path fill="#f2f2f2" d="M 98.894531 89.507812 L 98.675781 89.371094 L 98.625 89.121094 L 98.675781 89.371094 L 98.421875 89.402344 C 98.417969 89.378906 98.40625 89.324219 98.382812 89.238281 C 98.269531 88.773438 97.925781 87.363281 97.636719 85.144531 C 97.433594 83.59375 97.320312 81.996094 97.296875 80.402344 C 97.273438 78.808594 97.351562 77.597656 97.410156 76.625 C 97.457031 75.894531 97.511719 75.195312 97.566406 74.515625 C 97.710938 72.699219 97.847656 70.984375 97.746094 69.085938 C 97.722656 68.660156 97.675781 67.78125 97.160156 66.839844 C 96.863281 66.296875 96.449219 65.8125 95.9375 65.402344 L 96.257812 65.003906 C 96.824219 65.453125 97.277344 65.988281 97.609375 66.59375 C 98.183594 67.636719 98.234375 68.597656 98.257812 69.058594 C 98.363281 70.992188 98.222656 72.722656 98.078125 74.558594 C 98.023438 75.234375 97.96875 75.929688 97.921875 76.660156 C 97.863281 77.621094 97.789062 78.820312 97.808594 80.394531 C 97.832031 81.972656 97.945312 83.546875 98.144531 85.078125 C 98.429688 87.269531 98.769531 88.660156 98.882812 89.117188 C 98.941406 89.359375 98.953125 89.410156 98.894531 89.507812 Z M 98.894531 89.507812 " fill-opacity="1" fill-rule="nonzero"/><path fill="#f2f2f2" d="M 94.996094 66.21875 C 94.976562 66.21875 94.953125 66.21875 94.933594 66.214844 C 94.496094 66.191406 94.09375 65.929688 93.730469 65.441406 C 93.5625 65.207031 93.476562 64.945312 93.300781 64.417969 C 93.277344 64.335938 93.144531 63.925781 93.066406 63.359375 C 93.015625 62.988281 93.019531 62.835938 93.09375 62.699219 C 93.175781 62.546875 93.308594 62.441406 93.457031 62.367188 C 93.449219 62.320312 93.453125 62.269531 93.476562 62.21875 C 93.5625 62.003906 93.796875 62.03125 93.921875 62.046875 C 93.984375 62.054688 94.0625 62.0625 94.148438 62.058594 C 94.285156 62.054688 94.355469 62.011719 94.464844 61.953125 C 94.570312 61.894531 94.703125 61.824219 94.894531 61.785156 C 95.277344 61.703125 95.597656 61.8125 95.703125 61.847656 C 96.253906 62.03125 96.527344 62.464844 96.84375 62.964844 C 96.910156 63.0625 97.125 63.425781 97.269531 63.925781 C 97.371094 64.289062 97.355469 64.449219 97.324219 64.566406 C 97.261719 64.8125 97.113281 64.953125 96.734375 65.261719 C 96.339844 65.585938 96.140625 65.746094 95.972656 65.847656 C 95.574219 66.074219 95.328125 66.21875 94.996094 66.21875 Z M 94.996094 66.21875 " fill-opacity="1" fill-rule="nonzero"/><path fill="#ffb6b6" d="M 46.191406 48.480469 C 47.042969 48.707031 47.847656 48.449219 47.992188 47.90625 C 48.136719 47.363281 47.5625 46.742188 46.707031 46.519531 C 46.367188 46.421875 46.011719 46.410156 45.667969 46.484375 L 42.042969 45.578125 L 41.65625 47.285156 L 45.269531 47.996094 C 45.53125 48.230469 45.847656 48.394531 46.191406 48.480469 Z M 46.191406 48.480469 " fill-opacity="1" fill-rule="nonzero"/><path fill="#2f2e41" d="M 26.28125 40.160156 C 26.28125 40.160156 25.546875 41.574219 26.566406 42.269531 C 27.585938 42.964844 36.078125 46.195312 36.078125 46.195312 L 44.511719 48.027344 L 44.816406 45.980469 L 37.136719 43.527344 L 30.734375 39.21875 Z M 26.28125 40.160156 " fill-opacity="1" fill-rule="nonzero"/><path fill="#ffb6b6" d="M 36.324219 85.734375 L 37.753906 85.089844 L 35.5 78.359375 L 33.390625 79.308594 Z M 36.324219 85.734375 " fill-opacity="1" fill-rule="nonzero"/><path fill="#2f2e41" d="M 42.585938 86.363281 C 42.703125 86.601562 42.625 86.875 42.414062 86.976562 L 39.609375 88.320312 C 39.609375 88.320312 38.800781 87.339844 37.445312 87.402344 L 38.128906 89.027344 L 36.679688 89.722656 L 35.632812 87.082031 C 35.632812 87.082031 34.59375 85.902344 35.0625 84.820312 C 35.53125 83.734375 34.925781 84.144531 34.925781 84.144531 L 34.488281 82.410156 L 36.800781 81.621094 L 38.003906 84.097656 L 40.242188 86.050781 L 42.167969 86.074219 C 42.339844 86.078125 42.503906 86.191406 42.585938 86.363281 Z M 42.585938 86.363281 " fill-opacity="1" fill-rule="nonzero"/><path fill="#ffb6b6" d="M 8.019531 82.257812 L 9.300781 83.167969 L 13.96875 77.820312 L 12.082031 76.480469 Z M 8.019531 82.257812 " fill-opacity="1" fill-rule="nonzero"/><path fill="#2f2e41" d="M 10.644531 87.980469 C 10.496094 88.199219 10.21875 88.273438 10.027344 88.144531 L 7.449219 86.402344 C 7.449219 86.402344 7.886719 85.210938 7.148438 84.070312 L 6.089844 85.480469 L 4.761719 84.582031 L 6.507812 82.34375 C 6.507812 82.34375 7 80.851562 8.171875 80.707031 C 9.347656 80.566406 8.6875 80.25 8.6875 80.25 L 9.960938 78.996094 L 11.808594 80.589844 L 10.28125 82.878906 L 9.730469 85.800781 L 10.679688 87.476562 C 10.765625 87.625 10.753906 87.824219 10.644531 87.980469 Z M 10.644531 87.980469 " fill-opacity="1" fill-rule="nonzero"/><path fill="#2f2e41" d="M 23.933594 31.011719 L 30.648438 31.011719 L 30.648438 40.234375 L 23.933594 40.234375 Z M 23.933594 31.011719 " fill-opacity="1" fill-rule="nonzero"/><path fill="#f9a826" d="M 29.140625 36.28125 L 25.496094 35.199219 L 24.804688 37.070312 L 24.707031 48.503906 C 24.707031 48.503906 29.929688 47.320312 31.113281 49.289062 L 31.507812 45.742188 C 31.507812 45.742188 32.789062 43.96875 31.703125 41.703125 C 30.621094 39.433594 29.597656 38.414062 29.597656 38.414062 L 28.746094 37.957031 Z M 29.140625 36.28125 " fill-opacity="1" fill-rule="nonzero"/><path fill="#ffb6b6" d="M 24.953125 46.777344 L 24.460938 51.804688 L 30.964844 53.183594 C 30.964844 53.183594 30.472656 48.847656 31.0625 47.863281 Z M 24.953125 46.777344 " fill-opacity="1" fill-rule="nonzero"/><path fill="#2f2e41" d="M 31.359375 53.085938 C 31.359375 53.085938 27.21875 50.03125 23.671875 51.210938 C 23.671875 51.210938 19.480469 53.824219 21.652344 58.359375 L 18.347656 66.191406 L 10.957031 76.539062 L 13.027344 79.003906 L 22.785156 68.851562 L 25.9375 64.515625 L 33.921875 81.46875 L 36.386719 80.285156 L 33.328125 67.277344 L 31.507812 58.257812 Z M 31.359375 53.085938 " fill-opacity="1" fill-rule="nonzero"/><path fill="#2f2e41" d="M 21.699219 58.898438 L 16.773438 57.324219 L 21.503906 44.214844 L 21.011719 37.21875 L 25.183594 36.039062 L 27.515625 46.382812 Z M 21.699219 58.898438 " fill-opacity="1" fill-rule="nonzero"/><path fill="#2f2e41" d="M 29.324219 38.6875 L 28.578125 37.941406 L 28.910156 37.253906 C 28.910156 37.253906 31.0625 39.484375 31.457031 40.074219 C 31.851562 40.667969 35.53125 55.519531 35.53125 55.519531 L 29.980469 57.816406 L 31.0625 46.152344 L 31.464844 43.53125 C 31.523438 43.144531 31.457031 42.746094 31.273438 42.398438 Z M 29.324219 38.6875 " fill-opacity="1" fill-rule="nonzero"/><path fill="#ffb6b6" d="M 30.78125 32.082031 C 30.78125 32.515625 30.699219 32.933594 30.53125 33.332031 C 30.367188 33.734375 30.128906 34.085938 29.824219 34.390625 C 29.515625 34.699219 29.164062 34.933594 28.761719 35.101562 C 28.363281 35.265625 27.945312 35.347656 27.511719 35.347656 C 27.078125 35.347656 26.660156 35.265625 26.261719 35.101562 C 25.859375 34.933594 25.507812 34.699219 25.203125 34.390625 C 24.894531 34.085938 24.660156 33.734375 24.492188 33.332031 C 24.328125 32.933594 24.246094 32.515625 24.246094 32.082031 C 24.246094 31.648438 24.328125 31.230469 24.492188 30.832031 C 24.660156 30.429688 24.894531 30.078125 25.203125 29.769531 C 25.507812 29.464844 25.859375 29.226562 26.261719 29.0625 C 26.660156 28.898438 27.078125 28.8125 27.511719 28.8125 C 27.945312 28.8125 28.363281 28.898438 28.761719 29.0625 C 29.164062 29.226562 29.515625 29.464844 29.824219 29.769531 C 30.128906 30.078125 30.367188 30.429688 30.53125 30.832031 C 30.699219 31.230469 30.78125 31.648438 30.78125 32.082031 Z M 30.78125 32.082031 " fill-opacity="1" fill-rule="nonzero"/><path fill="#2f2e41" d="M 29.542969 30.746094 C 28.421875 29.996094 26.417969 32.992188 25.804688 31.152344 C 25.707031 30.863281 25.480469 32.132812 25.398438 32.578125 C 25.296875 33.144531 25.558594 33.59375 25.398438 33.695312 C 25.21875 33.808594 24.777344 33.300781 24.683594 33.375 C 24.589844 33.449219 24.886719 34.042969 25.398438 34.730469 C 26.082031 35.644531 26.511719 35.867188 27.074219 36.484375 C 27.597656 37.058594 28.566406 38.121094 28.429688 39.035156 C 28.171875 40.75 23.980469 42.078125 22.691406 40.789062 C 22.378906 40.480469 22.320312 39.78125 22.210938 38.398438 C 22.050781 36.335938 22.171875 34.792969 22.210938 34.332031 C 22.375 32.421875 22.457031 31.464844 22.847656 30.667969 C 23.097656 30.15625 23.9375 28.433594 25.796875 27.875 C 27.796875 27.277344 30.171875 28.253906 30.820312 29.710938 C 31.007812 30.128906 30.824219 30.085938 31.058594 31.464844 C 31.335938 33.09375 31.515625 34.074219 32.253906 34.652344 C 32.933594 35.183594 33.457031 34.886719 33.691406 35.289062 C 34.289062 36.335938 31.511719 39.644531 30.34375 39.195312 C 29.636719 38.925781 29.574219 37.3125 29.625 36.5625 C 29.730469 34.957031 30.527344 34.613281 30.5 33.136719 C 30.496094 32.746094 30.472656 31.363281 29.542969 30.746094 Z M 29.542969 30.746094 " fill-opacity="1" fill-rule="nonzero"/><path fill="#ffb6b6" d="M 15.308594 58.054688 C 15.167969 58.925781 15.503906 59.703125 16.058594 59.789062 C 16.613281 59.878906 17.171875 59.242188 17.3125 58.375 C 17.371094 58.027344 17.347656 57.671875 17.242188 57.335938 L 17.785156 53.640625 L 16.046875 53.421875 L 15.695312 57.085938 C 15.492188 57.375 15.359375 57.707031 15.308594 58.054688 Z M 15.308594 58.054688 " fill-opacity="1" fill-rule="nonzero"/><path fill="#2f2e41" d="M 21.601562 37.414062 C 21.601562 37.414062 20.121094 36.824219 19.53125 37.90625 C 18.941406 38.992188 16.574219 47.761719 16.574219 47.761719 L 15.589844 56.335938 L 17.660156 56.4375 L 19.335938 48.550781 L 22.980469 41.75 Z M 21.601562 37.414062 " fill-opacity="1" fill-rule="nonzero"/><g clip-path="url(#3da28ee065)"><path fill="#e6e6e6" d="M 115.648438 89.683594 C 115.648438 89.777344 115.570312 89.855469 115.476562 89.855469 L -3.609375 89.855469 L -3.609375 89.511719 L 115.476562 89.511719 C 115.570312 89.511719 115.648438 89.589844 115.648438 89.683594 Z M 115.648438 89.683594 " fill-opacity="1" fill-rule="nonzero"/></g></g></g></g></g></svg>