<svg xmlns="http://www.w3.org/2000/svg" xmlns:xlink="http://www.w3.org/1999/xlink" width="1920" zoomAndPan="magnify" viewBox="0 0 1440 809.999993" height="1080" preserveAspectRatio="xMidYMid meet" version="1.0"><defs><filter x="0%" y="0%" width="100%" height="100%" id="e0d665289a"><feColorMatrix values="0 0 0 0 1 0 0 0 0 1 0 0 0 0 1 0 0 0 1 0" color-interpolation-filters="sRGB"/></filter><mask id="207b13dc32"><g filter="url(#e0d665289a)"><rect x="-144" width="1728" fill="#000000" y="-80.999999" height="971.999992" fill-opacity="0.02"/></g></mask><clipPath id="7b6dbe0714"><path d="M 0 51 L 555 51 L 555 801 L 0 801 Z M 0 51 " clip-rule="nonzero"/></clipPath><clipPath id="ecfd99aaac"><path d="M 709.703125 447.566406 L 158.511719 955.074219 L -348.996094 403.878906 L 202.199219 -103.625 Z M 709.703125 447.566406 " clip-rule="nonzero"/></clipPath><clipPath id="b9323d6268"><path d="M 709.703125 447.566406 L 158.511719 955.074219 L -348.996094 403.878906 L 202.199219 -103.625 Z M 709.703125 447.566406 " clip-rule="nonzero"/></clipPath><clipPath id="c7fbe8bf95"><rect x="0" width="714" y="0" height="810"/></clipPath></defs><g mask="url(#207b13dc32)"><g transform="matrix(1, 0, 0, 1, 0, 0.000000000000039746)"><g clip-path="url(#c7fbe8bf95)"><g clip-path="url(#7b6dbe0714)"><g clip-path="url(#ecfd99aaac)"><g clip-path="url(#b9323d6268)"><path fill="#ccceef" d="M -73.273438 150.109375 C 78.585938 10.285156 315.972656 20.148438 455.921875 172.140625 C 595.835938 324.101562 586.136719 561.527344 434.277344 701.351562 C 282.417969 841.171875 45 831.277344 -94.914062 679.316406 L -40.753906 629.449219 C 71.671875 751.550781 262.40625 759.519531 384.410156 647.1875 C 506.410156 534.855469 514.183594 344.113281 401.757812 222.011719 C 289.332031 99.90625 98.597656 91.9375 -23.402344 204.269531 Z M -73.273438 150.109375 " fill-opacity="1" fill-rule="nonzero"/></g></g></g></g></g></g></svg>